<svg height="87" viewBox="0 0 87 87" width="87" xmlns="http://www.w3.org/2000/svg" xmlns:xlink="http://www.w3.org/1999/xlink"><filter id="a" filterUnits="userSpaceOnUse" height="87" width="87" x="0" y="0"><feOffset dy="3"/><feGaussianBlur result="blur" stdDeviation="8"/><feFlood flood-color="#ccc5ea" flood-opacity=".502"/><feComposite in2="blur" operator="in"/><feComposite in="SourceGraphic"/></filter><g filter="url(#a)"><path d="m129.466 119.091a19.485 19.485 0 0 0 -4.178-21.379 19.485 19.485 0 1 0 4.178 21.379zm-16.249-.493a1.718 1.718 0 1 1 -3.436 0v-5.38h-5.381a1.718 1.718 0 0 1 0-3.436h5.38v-5.382a1.718 1.718 0 1 1 3.436 0v5.38h5.38a1.718 1.718 0 0 1 0 3.436h-5.38z" fill="#fff" transform="translate(-68 -71)"/></g></svg>