<svg height="18.065" viewBox="0 0 21.938 18.065" width="21.938" xmlns="http://www.w3.org/2000/svg"><path d="m96.993 159.365a.947.947 0 0 0 -.88-.1l-7.553 2.961a.945.945 0 0 0 -.337.226h-3.712a.947.947 0 0 0 -.947.947v9.667a.947.947 0 0 0 .947.947h3.711a.945.945 0 0 0 .337.226l7.553 2.961a.947.947 0 0 0 1.293-.882v-16.17a.947.947 0 0 0 -.413-.783zm-11.534 4.982h2.5v7.772h-2.5zm19.1 2.939h-4.959a.947.947 0 1 0 0 1.895h4.956a.947.947 0 0 0 0-1.895zm-4.632-3.344a.944.944 0 0 0 .609-.222l2.478-2.083a.947.947 0 0 0 -1.219-1.45l-2.478 2.083a.947.947 0 0 0 .61 1.672zm3.087 10.565-2.478-2.083a.947.947 0 0 0 -1.219 1.45l2.478 2.083a.947.947 0 1 0 1.219-1.45z" fill="#9e9e9e" transform="translate(-83.564 -159.201)"/></svg>